<mxfile host="drawio-plugin" modified="2021-03-09T07:59:10.236Z" agent="5.0 (Windows NT 6.2; Win64; x64) AppleWebKit/537.36 (KHTML, like Gecko) Chrome/84.0.4147.105 Safari/537.36" etag="Hz1NeM6HIHGFkIAL29Ii" version="13.7.9" type="embed"><diagram id="duhPsJV-FfXXnAo5BKJz" name="Page-1"><mxGraphModel dx="2038" dy="699" grid="1" gridSize="10" guides="1" tooltips="1" connect="1" arrows="1" fold="1" page="0" pageScale="1" pageWidth="850" pageHeight="1100" math="0" shadow="0"><root><mxCell id="0"/><mxCell id="1" parent="0"/><mxCell id="ksMSaCYNW0-TO7aeto92-17" value="Read Node Capabilities" style="edgeStyle=orthogonalEdgeStyle;rounded=0;orthogonalLoop=1;jettySize=auto;html=1;exitX=1;exitY=0.5;exitDx=0;exitDy=0;" parent="1" source="ksMSaCYNW0-TO7aeto92-1" target="ksMSaCYNW0-TO7aeto92-10" edge="1"><mxGeometry relative="1" as="geometry"/></mxCell><mxCell id="ksMSaCYNW0-TO7aeto92-21" value="Read Data" style="edgeStyle=orthogonalEdgeStyle;rounded=0;orthogonalLoop=1;jettySize=auto;html=1;exitX=0;exitY=0.5;exitDx=0;exitDy=0;" parent="1" source="ksMSaCYNW0-TO7aeto92-1" target="ksMSaCYNW0-TO7aeto92-2" edge="1"><mxGeometry relative="1" as="geometry"/></mxCell><mxCell id="ksMSaCYNW0-TO7aeto92-23" value="Read Node Status&lt;br&gt;Read Tasks" style="edgeStyle=orthogonalEdgeStyle;rounded=0;orthogonalLoop=1;jettySize=auto;html=1;exitX=0.5;exitY=1;exitDx=0;exitDy=0;entryX=0.5;entryY=0;entryDx=0;entryDy=0;" parent="1" source="ksMSaCYNW0-TO7aeto92-1" target="ksMSaCYNW0-TO7aeto92-5" edge="1"><mxGeometry relative="1" as="geometry"/></mxCell><mxCell id="ksMSaCYNW0-TO7aeto92-1" value="MySQL Server" style="shape=datastore;whiteSpace=wrap;html=1;fillColor=#f5f5f5;strokeColor=#666666;fontColor=#333333;" parent="1" vertex="1"><mxGeometry x="340" y="80" width="120" height="80" as="geometry"/></mxCell><mxCell id="ksMSaCYNW0-TO7aeto92-22" value="Update Data" style="edgeStyle=orthogonalEdgeStyle;rounded=0;orthogonalLoop=1;jettySize=auto;html=1;exitX=0;exitY=0.5;exitDx=0;exitDy=0;entryX=0;entryY=0.3;entryDx=0;entryDy=0;" parent="1" source="ksMSaCYNW0-TO7aeto92-2" target="ksMSaCYNW0-TO7aeto92-1" edge="1"><mxGeometry relative="1" as="geometry"><Array as="points"><mxPoint x="40" y="120"/><mxPoint x="40" y="70"/><mxPoint x="290" y="70"/><mxPoint x="290" y="104"/></Array></mxGeometry></mxCell><mxCell id="ksMSaCYNW0-TO7aeto92-25" value="Kill Current Task&lt;br&gt;(TCP Connection)" style="rounded=0;orthogonalLoop=1;jettySize=auto;html=1;exitX=0.5;exitY=1;exitDx=0;exitDy=0;entryX=0.057;entryY=0.383;entryDx=0;entryDy=0;entryPerimeter=0;shape=link;" parent="1" source="ksMSaCYNW0-TO7aeto92-2" target="ksMSaCYNW0-TO7aeto92-5" edge="1"><mxGeometry relative="1" as="geometry"/></mxCell><mxCell id="ksMSaCYNW0-TO7aeto92-2" value="Farm View" style="shape=parallelogram;perimeter=parallelogramPerimeter;whiteSpace=wrap;html=1;fixedSize=1;fillColor=#d5e8d4;strokeColor=#82b366;" parent="1" vertex="1"><mxGeometry x="40" y="90" width="140" height="60" as="geometry"/></mxCell><mxCell id="ksMSaCYNW0-TO7aeto92-24" value="Update Data" style="edgeStyle=orthogonalEdgeStyle;rounded=0;orthogonalLoop=1;jettySize=auto;html=1;exitX=0.5;exitY=1;exitDx=0;exitDy=0;entryX=0.85;entryY=0.95;entryDx=0;entryDy=0;entryPerimeter=0;" parent="1" source="ksMSaCYNW0-TO7aeto92-5" target="ksMSaCYNW0-TO7aeto92-1" edge="1"><mxGeometry x="0.2366" relative="1" as="geometry"><mxPoint x="470" y="200" as="targetPoint"/><Array as="points"><mxPoint x="400" y="330"/><mxPoint x="510" y="330"/><mxPoint x="510" y="180"/><mxPoint x="442" y="180"/></Array><mxPoint as="offset"/></mxGeometry></mxCell><mxCell id="ksMSaCYNW0-TO7aeto92-5" value="Render Node" style="shape=parallelogram;perimeter=parallelogramPerimeter;whiteSpace=wrap;html=1;fixedSize=1;fillColor=#f8cecc;strokeColor=#b85450;" parent="1" vertex="1"><mxGeometry x="330" y="250" width="140" height="60" as="geometry"/></mxCell><mxCell id="ksMSaCYNW0-TO7aeto92-20" value="Create Jobs and Tasks" style="edgeStyle=orthogonalEdgeStyle;rounded=0;orthogonalLoop=1;jettySize=auto;html=1;exitX=1;exitY=0.5;exitDx=0;exitDy=0;entryX=1;entryY=0.3;entryDx=0;entryDy=0;" parent="1" source="ksMSaCYNW0-TO7aeto92-10" target="ksMSaCYNW0-TO7aeto92-1" edge="1"><mxGeometry relative="1" as="geometry"><Array as="points"><mxPoint x="780" y="120"/><mxPoint x="780" y="70"/><mxPoint x="505" y="70"/><mxPoint x="505" y="104"/></Array></mxGeometry></mxCell><mxCell id="ksMSaCYNW0-TO7aeto92-10" value="Submitter" style="shape=parallelogram;perimeter=parallelogramPerimeter;whiteSpace=wrap;html=1;fixedSize=1;fillColor=#dae8fc;strokeColor=#6c8ebf;" parent="1" vertex="1"><mxGeometry x="630" y="90" width="140" height="60" as="geometry"/></mxCell><mxCell id="ksMSaCYNW0-TO7aeto92-28" value="Create" style="text;html=1;strokeColor=none;fillColor=none;align=center;verticalAlign=middle;whiteSpace=wrap;rounded=0;" parent="1" vertex="1"><mxGeometry x="670" y="160" width="40" height="20" as="geometry"/></mxCell><mxCell id="ksMSaCYNW0-TO7aeto92-33" value="&lt;h1&gt;Render Node&lt;/h1&gt;&lt;p&gt;The Render Node software is the service that runs on all render nodes which fetches tasks and executes them. It&lt;span&gt;&amp;nbsp;queries the database on a regular interval for updates on it's status.&lt;/span&gt;&lt;/p&gt;&lt;p&gt;&lt;span&gt;When the node is set to Online, it will query the database for a task that meets all of it's capabilities. If it finds a task, it will spawn a subprocess to run the task.&amp;nbsp;&lt;/span&gt;&lt;span&gt;Once the task process exits, it will record the changes to the database and either keep looking for new tasks, or go offline.&amp;nbsp;&lt;/span&gt;&lt;/p&gt;&lt;p&gt;The Render Node also runs a TCP server waiting for a connection from a Farm View client to request it to terminate it's current task and update it's status after the task process is dead.&lt;/p&gt;" style="text;html=1;strokeColor=none;fillColor=none;spacing=5;spacingTop=-20;whiteSpace=wrap;overflow=hidden;rounded=0;" parent="1" vertex="1"><mxGeometry x="280" y="345" width="356" height="255" as="geometry"/></mxCell><mxCell id="ksMSaCYNW0-TO7aeto92-35" value="&lt;h1&gt;&lt;span&gt;Farm View&lt;/span&gt;&lt;/h1&gt;&lt;p&gt;Farm View is the farm's dashboard. On it you can view and update the Jobs, Tasks, and render nodes.&amp;nbsp;&amp;nbsp;&lt;/p&gt;&lt;p&gt;Farm View can also open a TCP connection to nodes to request that they terminate their current task and update their status after the task is dead.&amp;nbsp;&lt;/p&gt;" style="text;html=1;strokeColor=none;fillColor=none;spacing=5;spacingTop=-20;whiteSpace=wrap;overflow=hidden;rounded=0;" parent="1" vertex="1"><mxGeometry x="-120" y="350" width="356" height="215" as="geometry"/></mxCell><mxCell id="ksMSaCYNW0-TO7aeto92-36" value="&lt;h1&gt;&lt;span&gt;Submitter&lt;/span&gt;&lt;/h1&gt;&lt;p&gt;Submitter is used to submit new Jobs and Tasks onto the database for the Render Node to fetch and process.&amp;nbsp;&lt;/p&gt;" style="text;html=1;strokeColor=none;fillColor=none;spacing=5;spacingTop=-20;whiteSpace=wrap;overflow=hidden;rounded=0;" parent="1" vertex="1"><mxGeometry x="650" y="350" width="356" height="215" as="geometry"/></mxCell></root></mxGraphModel></diagram></mxfile>